<?xml version="1.0" encoding="UTF-8" standalone="no"?>
<!-- This Source Code Form is subject to the terms of the Mozilla Public
   - License, v. 2.0. If a copy of the MPL was not distributed with this
   - file, You can obtain one at http://mozilla.org/MPL/2.0/. -->

<svg
   viewBox="0 0 32 32"
   width="32"
   height="32"
   fill="context-fill light-dark(black, white)"
   fill-opacity="context-fill-opacity"
   version="1.1"
   id="svg6"
   sodipodi:docname="logo.svg"
   inkscape:version="1.2.1 (9c6d41e410, 2022-07-14)"
   xml:space="preserve"
   xmlns:inkscape="http://www.inkscape.org/namespaces/inkscape"
   xmlns:sodipodi="http://sodipodi.sourceforge.net/DTD/sodipodi-0.dtd"
   xmlns="http://www.w3.org/2000/svg"
   xmlns:svg="http://www.w3.org/2000/svg"><sodipodi:namedview
     id="namedview5"
     pagecolor="#ffffff"
     bordercolor="#000000"
     borderopacity="0.25"
     inkscape:showpageshadow="2"
     inkscape:pageopacity="0.0"
     inkscape:pagecheckerboard="0"
     inkscape:deskcolor="#d1d1d1"
     showgrid="true"
     inkscape:zoom="22.627417"
     inkscape:cx="7.8002717"
     inkscape:cy="14.782951"
     inkscape:window-width="1920"
     inkscape:window-height="991"
     inkscape:window-x="-9"
     inkscape:window-y="-9"
     inkscape:window-maximized="1"
     inkscape:current-layer="svg6"
     showguides="false"><inkscape:grid
       type="xygrid"
       id="grid2781"
       spacingx="0.25"
       spacingy="0.25"
       empspacing="4"
       originx="0"
       originy="0"
       color="#e50000"
       opacity="0.14901961"
       empcolor="#e50000"
       empopacity="0.30196078" /></sodipodi:namedview><defs
     id="defs10" /><path
     id="rect2536"
     style="fill:#2196f3;stroke-width:2;stroke-linecap:round;paint-order:stroke fill markers"
     d="M 13 0 A 13 13 0 0 0 1.7421875 6.5 A 13 13 0 0 0 1.7421875 19.5 A 13 13 0 0 0 6 23.923828 L 6 32 L 12.0625 25.9375 A 13 13 0 0 0 13 26 L 19 26 A 13 13 0 0 0 30.257812 19.5 A 13 13 0 0 0 30.257812 6.5 A 13 13 0 0 0 19 0 L 13 0 z " /><circle
     style="fill:#ffffff;fill-opacity:1;stroke:none;stroke-width:1.45521;stroke-linecap:round;stroke-linejoin:miter;stroke-dasharray:none;stroke-opacity:1;paint-order:stroke fill markers"
     id="circle8456"
     cx="23"
     cy="13"
     r="6" /><path
     style="fill:#ffffff;fill-opacity:1;stroke-width:3.69231;stroke-linecap:round;paint-order:stroke fill markers"
     d="m 9,7 c 3.313701,0 6,2.6862981 6,6 0,3.313701 -2.686299,6 -6,6 C 5.6862981,19 3,16.313701 3,13 3,9.6862981 5.6862981,7 9,7 Z"
     id="path252582" /><path
     style="fill:#2196f3;fill-opacity:1;stroke:none;stroke-width:2;stroke-linecap:round;stroke-linejoin:miter;stroke-dasharray:none;stroke-opacity:1;paint-order:stroke fill markers"
     d="m 7,24 v 8"
     id="path245098" /><path
     style="fill:#2196f3;fill-opacity:1;stroke-width:3.42857;stroke-linecap:round;paint-order:stroke fill markers"
     d="m 9,10 c -1.6568511,0 -3,1.343149 -3,3 0,1.656851 1.3431489,3 3,3 1.656851,0 3,-1.343149 3,-3 0,-1.656851 -1.343149,-3 -3,-3 z"
     id="path252586" /><path
     style="fill:#2196f3;fill-opacity:1;stroke-width:3.42857;stroke-linecap:round;paint-order:stroke fill markers"
     d="m 23,10 c -1.65685,0 -3,1.343149 -3,3 0,1.656851 1.34315,3 3,3 1.656851,0 3,-1.343149 3,-3 0,-1.656851 -1.343149,-3 -3,-3 z"
     id="path8458" /><path
     style="fill:#ffffff;stroke:none;stroke-width:2;stroke-linecap:round;paint-order:stroke fill markers"
     d="m 16,18 -1,2 1,2 1,-2 z"
     id="path6948" /></svg>
